# xmcd CD database file
#
# Track frame offsets:
#	150
#	13597
#	27355
#	41095
#	54924
#	66364
#	79368
#	94444
#	105132
#	118575
#	132282
#	146304
#	161559
#	177567
#	195820
#	213328
#
# Disc length: 3069 seconds
#
# Revision: 3
# Processed by: cddbd v1.5.2PL0 Copyright (c) Steve Scherf et al.
# Submitted via: CDex 1.51
#
DISCID=d60bfb10
DTITLE=George Wettling - I've Found a New Baby
DYEAR=1940
DGENRE=Jazz
TTITLE0=I've Found a New Baby  [1940]
TTITLE1=Bugle Call Rag  [1940]
TTITLE2=I Wish I Could Shimmy Like My Sister Kate  [1940]
TTITLE3=The Darktown Strutter's Ball  [1940]
TTITLE4=Some of These Days  [1944]
TTITLE5=Everybody Loves My Baby  [1944]
TTITLE6=China Boy  [1944]
TTITLE7=That's a Plenty  [1944]
TTITLE8=Heebie Jeebies  [1944]
TTITLE9=How Come You Do Me Like You Do  [1944]
TTITLE10=Struttin' With Some Barbecue  [1944]
TTITLE11=Blues for Stu  [1944]
TTITLE12=Home  [1944]
TTITLE13=Too Marvelous for Words  [1944]
TTITLE14=You Brought a New Kind of Love to Me  [1944]
TTITLE15=Somebody Loves Me  [1944]
EXTD=YEAR: 1940
EXTT0=
EXTT1=
EXTT2=
EXTT3=
EXTT4=
EXTT5=
EXTT6=
EXTT7=
EXTT8=
EXTT9=
EXTT10=
EXTT11=
EXTT12=
EXTT13=
EXTT14=
EXTT15=
PLAYORDER=
